<?xml version="1.0" encoding="UTF-8"?>
<svg xmlns="http://www.w3.org/2000/svg" xmlns:xlink="http://www.w3.org/1999/xlink" width="4000" height="4000" viewBox="0 0 4000 4000">
<defs>
<g>
<g id="glyph-0-0">
<path d="M 6.871094 0.421875 C 5.808594 0.421875 4.863281 0.238281 4.035156 -0.121094 C 3.203125 -0.480469 2.546875 -1.011719 2.054688 -1.710938 C 1.566406 -2.410156 1.320312 -3.261719 1.320312 -4.261719 C 1.320312 -5.761719 1.855469 -6.894531 2.925781 -7.664062 C 3.996094 -8.433594 5.339844 -8.820312 6.960938 -8.820312 L 11.460938 -8.820312 L 11.460938 -9.78125 C 11.460938 -10.621094 11.199219 -11.304688 10.679688 -11.835938 C 10.160156 -12.363281 9.359375 -12.628906 8.28125 -12.628906 C 7.21875 -12.628906 6.410156 -12.378906 5.851562 -11.878906 C 5.289062 -11.378906 4.921875 -10.730469 4.738281 -9.929688 L 1.859375 -10.859375 C 2.101562 -11.640625 2.484375 -12.359375 3.015625 -13.019531 C 3.546875 -13.679688 4.246094 -14.210938 5.113281 -14.609375 C 5.984375 -15.011719 7.050781 -15.210938 8.308594 -15.210938 C 10.230469 -15.210938 11.738281 -14.71875 12.839844 -13.738281 C 13.941406 -12.761719 14.488281 -11.371094 14.488281 -9.570312 L 14.488281 -3.480469 C 14.488281 -2.878906 14.769531 -2.578125 15.328125 -2.578125 L 16.589844 -2.578125 L 16.589844 0 L 14.28125 0 C 13.601562 0 13.039062 -0.179688 12.601562 -0.539062 C 12.160156 -0.898438 11.941406 -1.390625 11.941406 -2.011719 L 11.941406 -2.101562 L 11.460938 -2.101562 C 11.300781 -1.78125 11.058594 -1.425781 10.738281 -1.035156 C 10.421875 -0.644531 9.949219 -0.304688 9.328125 -0.015625 C 8.710938 0.273438 7.890625 0.421875 6.871094 0.421875 M 7.320312 -2.128906 C 8.539062 -2.128906 9.535156 -2.484375 10.304688 -3.195312 C 11.074219 -3.90625 11.460938 -4.878906 11.460938 -6.121094 L 11.460938 -6.421875 L 7.140625 -6.421875 C 6.320312 -6.421875 5.660156 -6.246094 5.160156 -5.894531 C 4.660156 -5.546875 4.410156 -5.03125 4.410156 -4.351562 C 4.410156 -3.671875 4.671875 -3.128906 5.191406 -2.730469 C 5.710938 -2.328125 6.421875 -2.128906 7.320312 -2.128906 Z "/>
</g>
<g id="glyph-0-1">
</g>
<g id="glyph-0-2">
<path d="M 2.28125 6 L 2.28125 -14.789062 L 5.308594 -14.789062 L 5.308594 -12.660156 L 5.789062 -12.660156 C 6.171875 -13.320312 6.746094 -13.910156 7.515625 -14.429688 C 8.285156 -14.949219 9.390625 -15.210938 10.828125 -15.210938 C 12.050781 -15.210938 13.179688 -14.910156 14.21875 -14.308594 C 15.261719 -13.710938 16.09375 -12.839844 16.726562 -11.699219 C 17.355469 -10.558594 17.671875 -9.199219 17.671875 -7.621094 L 17.671875 -7.171875 C 17.671875 -5.570312 17.355469 -4.203125 16.726562 -3.074219 C 16.09375 -1.945312 15.265625 -1.078125 14.234375 -0.480469 C 13.203125 0.121094 12.070312 0.421875 10.828125 0.421875 C 9.390625 0.421875 8.285156 0.164062 7.515625 -0.34375 C 6.746094 -0.855469 6.191406 -1.410156 5.851562 -2.011719 L 5.371094 -2.011719 L 5.371094 6 L 2.28125 6 M 9.929688 -2.28125 C 11.269531 -2.28125 12.375 -2.710938 13.246094 -3.570312 C 14.113281 -4.429688 14.550781 -5.660156 14.550781 -7.261719 L 14.550781 -7.53125 C 14.550781 -9.109375 14.113281 -10.328125 13.246094 -11.191406 C 12.375 -12.050781 11.269531 -12.480469 9.929688 -12.480469 C 8.609375 -12.480469 7.515625 -12.050781 6.644531 -11.191406 C 5.773438 -10.328125 5.339844 -9.109375 5.339844 -7.53125 L 5.339844 -7.261719 C 5.339844 -5.660156 5.769531 -4.429688 6.628906 -3.570312 C 7.488281 -2.710938 8.589844 -2.28125 9.929688 -2.28125 Z "/>
</g>
<g id="glyph-0-3">
<path d="M 9.058594 0.421875 C 7.558594 0.421875 6.25 0.105469 5.128906 -0.523438 C 4.011719 -1.15625 3.136719 -2.039062 2.503906 -3.179688 C 1.875 -4.320312 1.558594 -5.660156 1.558594 -7.199219 L 1.558594 -7.558594 C 1.558594 -9.101562 1.875 -10.441406 2.503906 -11.578125 C 3.136719 -12.71875 4 -13.609375 5.101562 -14.25 C 6.199219 -14.890625 7.480469 -15.210938 8.941406 -15.210938 C 10.359375 -15.210938 11.605469 -14.894531 12.675781 -14.265625 C 13.746094 -13.636719 14.578125 -12.761719 15.179688 -11.640625 C 15.78125 -10.519531 16.078125 -9.210938 16.078125 -7.710938 L 16.078125 -6.539062 L 4.710938 -6.539062 C 4.75 -5.238281 5.183594 -4.203125 6.015625 -3.433594 C 6.84375 -2.664062 7.878906 -2.28125 9.121094 -2.28125 C 10.28125 -2.28125 11.15625 -2.539062 11.746094 -3.058594 C 12.335938 -3.578125 12.789062 -4.179688 13.109375 -4.859375 L 15.691406 -3.539062 C 15.390625 -2.980469 14.980469 -2.390625 14.460938 -1.769531 C 13.941406 -1.148438 13.238281 -0.628906 12.359375 -0.210938 C 11.480469 0.210938 10.378906 0.421875 9.058594 0.421875 M 4.738281 -8.910156 L 12.960938 -8.910156 C 12.859375 -10.011719 12.449219 -10.878906 11.730469 -11.519531 C 11.011719 -12.160156 10.070312 -12.480469 8.910156 -12.480469 C 7.75 -12.480469 6.804688 -12.160156 6.074219 -11.519531 C 5.34375 -10.878906 4.898438 -10.011719 4.738281 -8.910156 Z "/>
</g>
<g id="glyph-0-4">
<path d="M 2.28125 0 L 2.28125 -14.789062 L 5.308594 -14.789062 L 5.308594 -12.570312 L 5.789062 -12.570312 C 6.070312 -13.171875 6.570312 -13.730469 7.289062 -14.25 C 8.011719 -14.769531 9.078125 -15.03125 10.5 -15.03125 C 11.621094 -15.03125 12.613281 -14.78125 13.484375 -14.28125 C 14.355469 -13.78125 15.039062 -13.070312 15.539062 -12.148438 C 16.039062 -11.230469 16.289062 -10.140625 16.289062 -8.878906 L 16.289062 0 L 13.199219 0 L 13.199219 -8.640625 C 13.199219 -9.921875 12.878906 -10.863281 12.238281 -11.476562 C 11.601562 -12.085938 10.71875 -12.390625 9.601562 -12.390625 C 8.320312 -12.390625 7.296875 -11.96875 6.523438 -11.128906 C 5.753906 -10.289062 5.371094 -9.070312 5.371094 -7.46875 L 5.371094 0 Z "/>
</g>
<g id="glyph-0-5">
<path d="M 8.339844 0.421875 C 6.441406 0.421875 4.871094 0 3.628906 -0.839844 C 2.390625 -1.679688 1.640625 -2.949219 1.378906 -4.648438 L 4.261719 -5.339844 C 4.480469 -4.101562 4.964844 -3.246094 5.714844 -2.773438 C 6.464844 -2.304688 7.339844 -2.070312 8.339844 -2.070312 C 9.320312 -2.070312 10.074219 -2.253906 10.605469 -2.625 C 11.136719 -2.996094 11.398438 -3.488281 11.398438 -4.109375 C 11.398438 -4.710938 11.148438 -5.148438 10.648438 -5.429688 C 10.148438 -5.710938 9.421875 -5.941406 8.460938 -6.121094 L 7.410156 -6.300781 C 6.410156 -6.480469 5.5 -6.738281 4.679688 -7.078125 C 3.859375 -7.421875 3.210938 -7.890625 2.730469 -8.488281 C 2.25 -9.089844 2.011719 -9.859375 2.011719 -10.800781 C 2.011719 -12.199219 2.53125 -13.285156 3.570312 -14.054688 C 4.609375 -14.824219 5.988281 -15.210938 7.710938 -15.210938 C 9.371094 -15.210938 10.734375 -14.835938 11.804688 -14.085938 C 12.875 -13.335938 13.570312 -12.320312 13.890625 -11.039062 L 11.011719 -10.230469 C 10.828125 -11.128906 10.449219 -11.765625 9.871094 -12.136719 C 9.289062 -12.503906 8.570312 -12.691406 7.710938 -12.691406 C 6.871094 -12.691406 6.210938 -12.535156 5.730469 -12.226562 C 5.25 -11.914062 5.011719 -11.480469 5.011719 -10.921875 C 5.011719 -10.320312 5.246094 -9.878906 5.714844 -9.601562 C 6.183594 -9.320312 6.820312 -9.109375 7.621094 -8.96875 L 8.671875 -8.789062 C 9.730469 -8.609375 10.695312 -8.355469 11.566406 -8.023438 C 12.433594 -7.695312 13.128906 -7.234375 13.648438 -6.644531 C 14.171875 -6.054688 14.429688 -5.261719 14.429688 -4.261719 C 14.429688 -2.761719 13.875 -1.605469 12.765625 -0.796875 C 11.65625 0.015625 10.179688 0.421875 8.339844 0.421875 Z "/>
</g>
<g id="glyph-0-6">
<path d="M 7.710938 0 L 7.710938 -18.78125 L 7.230469 -18.78125 L 3.78125 -11.699219 L 0.449219 -11.699219 L 5.101562 -21 L 10.859375 -21 L 10.859375 0 Z "/>
</g>
<g id="glyph-0-7">
<path d="M 1.558594 -7.320312 L 1.558594 -7.769531 C 1.558594 -9.308594 1.871094 -10.636719 2.488281 -11.746094 C 3.109375 -12.855469 3.941406 -13.710938 4.980469 -14.308594 C 6.019531 -14.910156 7.171875 -15.210938 8.429688 -15.210938 C 9.871094 -15.210938 10.976562 -14.941406 11.746094 -14.398438 C 12.515625 -13.859375 13.078125 -13.28125 13.441406 -12.660156 L 13.921875 -12.660156 L 13.921875 -14.789062 L 16.921875 -14.789062 L 16.921875 3.03125 C 16.921875 3.929688 16.65625 4.648438 16.125 5.191406 C 15.59375 5.730469 14.871094 6 13.949219 6 L 3.988281 6 L 3.988281 3.300781 L 12.988281 3.300781 C 13.570312 3.300781 13.859375 3 13.859375 2.398438 L 13.859375 -2.308594 L 13.378906 -2.308594 C 13.039062 -1.730469 12.496094 -1.183594 11.746094 -0.675781 C 10.996094 -0.164062 9.890625 0.0898438 8.429688 0.0898438 C 7.191406 0.0898438 6.050781 -0.203125 5.011719 -0.796875 C 3.96875 -1.386719 3.136719 -2.234375 2.503906 -3.34375 C 1.875 -4.453125 1.558594 -5.78125 1.558594 -7.320312 M 9.269531 -2.609375 C 10.609375 -2.609375 11.714844 -3.03125 12.585938 -3.871094 C 13.453125 -4.710938 13.890625 -5.890625 13.890625 -7.410156 L 13.890625 -7.679688 C 13.890625 -9.199219 13.453125 -10.378906 12.585938 -11.21875 C 11.714844 -12.058594 10.609375 -12.480469 9.269531 -12.480469 C 7.929688 -12.480469 6.828125 -12.058594 5.96875 -11.21875 C 5.109375 -10.378906 4.679688 -9.199219 4.679688 -7.679688 L 4.679688 -7.410156 C 4.679688 -5.890625 5.113281 -4.710938 5.984375 -3.871094 C 6.855469 -3.03125 7.949219 -2.609375 9.269531 -2.609375 Z "/>
</g>
<g id="glyph-0-8">
<path d="M 2.28125 0 L 2.28125 -14.789062 L 5.308594 -14.789062 L 5.308594 -13.050781 L 5.789062 -13.050781 C 6.03125 -13.671875 6.410156 -14.125 6.929688 -14.414062 C 7.449219 -14.703125 8.109375 -14.851562 8.910156 -14.851562 L 10.679688 -14.851562 L 10.679688 -12.058594 L 8.789062 -12.058594 C 7.769531 -12.058594 6.945312 -11.785156 6.316406 -11.234375 C 5.683594 -10.683594 5.371094 -9.839844 5.371094 -8.699219 L 5.371094 0 Z "/>
</g>
<g id="glyph-0-9">
<path d="M 2.28125 0 L 2.28125 -14.789062 L 5.308594 -14.789062 L 5.308594 -13.050781 L 5.789062 -13.050781 C 6.070312 -13.570312 6.515625 -14.03125 7.125 -14.429688 C 7.734375 -14.828125 8.578125 -15.03125 9.660156 -15.03125 C 10.761719 -15.03125 11.644531 -14.800781 12.316406 -14.339844 C 12.984375 -13.878906 13.488281 -13.308594 13.828125 -12.628906 L 14.308594 -12.628906 C 14.628906 -13.308594 15.121094 -13.878906 15.78125 -14.339844 C 16.441406 -14.800781 17.371094 -15.03125 18.570312 -15.03125 C 19.988281 -15.03125 21.175781 -14.585938 22.125 -13.695312 C 23.074219 -12.804688 23.550781 -11.519531 23.550781 -9.839844 L 23.550781 0 L 20.460938 0 L 20.460938 -9.628906 C 20.460938 -10.511719 20.214844 -11.195312 19.726562 -11.683594 C 19.234375 -12.175781 18.539062 -12.421875 17.640625 -12.421875 C 16.679688 -12.421875 15.910156 -12.109375 15.328125 -11.488281 C 14.75 -10.871094 14.460938 -9.980469 14.460938 -8.820312 L 14.460938 0 L 11.371094 0 L 11.371094 -9.628906 C 11.371094 -10.511719 11.125 -11.195312 10.636719 -11.683594 C 10.144531 -12.175781 9.449219 -12.421875 8.550781 -12.421875 C 7.589844 -12.421875 6.820312 -12.109375 6.238281 -11.488281 C 5.660156 -10.871094 5.371094 -9.980469 5.371094 -8.820312 L 5.371094 0 Z "/>
</g>
<g id="glyph-0-10">
<path d="M 4.140625 0.421875 C 3.441406 0.421875 2.855469 0.191406 2.386719 -0.269531 C 1.914062 -0.730469 1.679688 -1.320312 1.679688 -2.039062 C 1.679688 -2.761719 1.914062 -3.34375 2.386719 -3.796875 C 2.855469 -4.246094 3.441406 -4.46875 4.140625 -4.46875 C 4.839844 -4.46875 5.425781 -4.246094 5.894531 -3.796875 C 6.363281 -3.34375 6.601562 -2.761719 6.601562 -2.039062 C 6.601562 -1.320312 6.363281 -0.730469 5.894531 -0.269531 C 5.425781 0.191406 4.839844 0.421875 4.140625 0.421875 Z "/>
</g>
</g>
</defs>
<g fill="rgb(61.176471%, 54.901961%, 100%)" fill-opacity="1">
<use xlink:href="#glyph-0-0" x="30" y="49.519531"/>
<use xlink:href="#glyph-0-1" x="47" y="49.519531"/>
<use xlink:href="#glyph-0-0" x="55" y="49.519531"/>
<use xlink:href="#glyph-0-2" x="72" y="49.519531"/>
<use xlink:href="#glyph-0-3" x="91" y="49.519531"/>
<use xlink:href="#glyph-0-4" x="109" y="49.519531"/>
<use xlink:href="#glyph-0-0" x="127" y="49.519531"/>
<use xlink:href="#glyph-0-5" x="144" y="49.519531"/>
<use xlink:href="#glyph-0-1" x="160" y="49.519531"/>
<use xlink:href="#glyph-0-6" x="168" y="49.519531"/>
<use xlink:href="#glyph-0-1" x="181" y="49.519531"/>
<use xlink:href="#glyph-0-7" x="189" y="49.519531"/>
<use xlink:href="#glyph-0-8" x="208" y="49.519531"/>
<use xlink:href="#glyph-0-0" x="219" y="49.519531"/>
<use xlink:href="#glyph-0-9" x="236" y="49.519531"/>
<use xlink:href="#glyph-0-0" x="262" y="49.519531"/>
<use xlink:href="#glyph-0-10" x="279" y="49.519531"/>
</g>
</svg>
