<?xml version="1.0" encoding="UTF-8"?>
<svg xmlns="http://www.w3.org/2000/svg" xmlns:xlink="http://www.w3.org/1999/xlink" width="4000" height="4000" viewBox="0 0 4000 4000">
<defs>
<g>
<g id="glyph-0-0">
<path d="M 7.03125 0.296875 C 5.226562 0.296875 3.800781 -0.214844 2.746094 -1.234375 C 1.6875 -2.253906 1.160156 -3.730469 1.160156 -5.65625 L 1.160156 -9.121094 C 1.160156 -11.046875 1.6875 -12.523438 2.746094 -13.542969 C 3.800781 -14.5625 5.226562 -15.074219 7.03125 -15.074219 C 8.804688 -15.074219 10.171875 -14.582031 11.136719 -13.59375 C 12.101562 -12.609375 12.582031 -11.265625 12.582031 -9.5625 L 12.582031 -9.457031 L 10.324219 -9.457031 L 10.324219 -9.625 C 10.324219 -10.625 10.050781 -11.441406 9.511719 -12.074219 C 8.96875 -12.707031 8.140625 -13.023438 7.03125 -13.023438 C 5.902344 -13.023438 5.023438 -12.683594 4.390625 -12 C 3.757812 -11.320312 3.441406 -10.371094 3.441406 -9.160156 L 3.441406 -5.617188 C 3.441406 -4.40625 3.757812 -3.457031 4.390625 -2.777344 C 5.023438 -2.09375 5.902344 -1.753906 7.03125 -1.753906 C 8.140625 -1.753906 8.96875 -2.070312 9.511719 -2.703125 C 10.050781 -3.335938 10.324219 -4.152344 10.324219 -5.152344 L 10.324219 -5.511719 L 12.582031 -5.511719 L 12.582031 -5.214844 C 12.582031 -3.511719 12.101562 -2.167969 11.136719 -1.183594 C 10.171875 -0.195312 8.804688 0.296875 7.03125 0.296875 Z "/>
</g>
<g id="glyph-0-1">
<path d="M 1.542969 0 L 1.542969 -14.777344 L 10.851562 -14.777344 L 10.851562 -12.707031 L 3.820312 -12.707031 L 3.820312 -8.464844 L 10.261719 -8.464844 L 10.261719 -6.398438 L 3.820312 -6.398438 L 3.820312 -2.070312 L 10.957031 -2.070312 L 10.957031 0 Z "/>
</g>
<g id="glyph-0-2">
<path d="M 1.542969 0 L 1.542969 -14.777344 L 7.746094 -14.777344 C 8.664062 -14.777344 9.464844 -14.617188 10.152344 -14.292969 C 10.84375 -13.96875 11.386719 -13.515625 11.78125 -12.929688 C 12.171875 -12.347656 12.371094 -11.644531 12.371094 -10.828125 L 12.371094 -10.597656 C 12.371094 -9.667969 12.148438 -8.925781 11.707031 -8.371094 C 11.261719 -7.816406 10.722656 -7.425781 10.089844 -7.199219 L 10.089844 -6.859375 C 10.625 -6.832031 11.054688 -6.648438 11.378906 -6.3125 C 11.703125 -5.972656 11.863281 -5.503906 11.863281 -4.898438 L 11.863281 0 L 9.585938 0 L 9.585938 -4.582031 C 9.585938 -4.960938 9.480469 -5.261719 9.277344 -5.488281 C 9.074219 -5.714844 8.753906 -5.828125 8.316406 -5.828125 L 3.820312 -5.828125 L 3.820312 0 L 1.542969 0 M 3.820312 -7.894531 L 7.496094 -7.894531 C 8.3125 -7.894531 8.945312 -8.097656 9.394531 -8.507812 C 9.84375 -8.914062 10.070312 -9.484375 10.070312 -10.21875 L 10.070312 -10.386719 C 10.070312 -11.105469 9.847656 -11.671875 9.40625 -12.085938 C 8.960938 -12.5 8.324219 -12.707031 7.496094 -12.707031 L 3.820312 -12.707031 Z "/>
</g>
<g id="glyph-0-3">
<path d="M 0.464844 0 L 4.664062 -14.777344 L 8.675781 -14.777344 L 12.878906 0 L 10.535156 0 L 9.5625 -3.484375 L 3.777344 -3.484375 L 2.808594 0 L 0.464844 0 M 4.347656 -5.59375 L 8.992188 -5.59375 L 6.839844 -13.363281 L 6.503906 -13.363281 Z "/>
</g>
<g id="glyph-0-4">
</g>
<g id="glyph-0-5">
<path d="M 0.992188 0 L 0.992188 -2.027344 L 2.996094 -2.027344 L 2.996094 -12.75 L 0.992188 -12.75 L 0.992188 -14.777344 L 6.902344 -14.777344 C 8.859375 -14.777344 10.367188 -14.277344 11.421875 -13.277344 C 12.476562 -12.28125 13.003906 -10.773438 13.003906 -8.761719 L 13.003906 -5.996094 C 13.003906 -3.984375 12.476562 -2.480469 11.421875 -1.488281 C 10.367188 -0.496094 8.859375 0 6.902344 0 L 0.992188 0 M 5.277344 -2.070312 L 6.925781 -2.070312 C 9.457031 -2.070312 10.722656 -3.355469 10.722656 -5.933594 L 10.722656 -8.84375 C 10.722656 -11.40625 9.457031 -12.6875 6.925781 -12.6875 L 5.277344 -12.6875 Z "/>
</g>
</g>
</defs>
<g fill="rgb(61.176471%, 54.901961%, 100%)" fill-opacity="1">
<use xlink:href="#glyph-0-0" x="30" y="40.772461"/>
<use xlink:href="#glyph-0-1" x="44" y="40.772461"/>
<use xlink:href="#glyph-0-2" x="56" y="40.772461"/>
<use xlink:href="#glyph-0-0" x="69" y="40.772461"/>
<use xlink:href="#glyph-0-3" x="82" y="40.772461"/>
<use xlink:href="#glyph-0-4" x="95" y="40.772461"/>
<use xlink:href="#glyph-0-5" x="100" y="40.772461"/>
<use xlink:href="#glyph-0-1" x="114" y="40.772461"/>
</g>
</svg>
