<?xml version="1.0" encoding="UTF-8"?>
<svg xmlns="http://www.w3.org/2000/svg" xmlns:xlink="http://www.w3.org/1999/xlink" width="4000" height="4000" viewBox="0 0 4000 4000">
<defs>
<g>
<g id="glyph-0-0">
<path d="M 4.644531 0 L 0.585938 -12.050781 L 3.25 -12.050781 L 6.453125 -1.859375 L 6.84375 -1.859375 L 10.046875 -12.050781 L 12.710938 -12.050781 L 8.652344 0 Z "/>
</g>
<g id="glyph-0-1">
<path d="M 7.382812 0.34375 C 6.160156 0.34375 5.09375 0.0859375 4.179688 -0.429688 C 3.265625 -0.941406 2.554688 -1.664062 2.042969 -2.589844 C 1.527344 -3.519531 1.269531 -4.613281 1.269531 -5.867188 L 1.269531 -6.160156 C 1.269531 -7.414062 1.527344 -8.507812 2.042969 -9.433594 C 2.554688 -10.363281 3.257812 -11.089844 4.15625 -11.609375 C 5.050781 -12.132812 6.09375 -12.394531 7.285156 -12.394531 C 8.441406 -12.394531 9.457031 -12.136719 10.328125 -11.625 C 11.199219 -11.109375 11.878906 -10.398438 12.367188 -9.484375 C 12.859375 -8.570312 13.101562 -7.503906 13.101562 -6.28125 L 13.101562 -5.328125 L 3.835938 -5.328125 C 3.871094 -4.269531 4.226562 -3.425781 4.902344 -2.800781 C 5.578125 -2.171875 6.421875 -1.859375 7.429688 -1.859375 C 8.375 -1.859375 9.089844 -2.070312 9.570312 -2.492188 C 10.050781 -2.917969 10.421875 -3.40625 10.683594 -3.960938 L 12.785156 -2.882812 C 12.539062 -2.429688 12.207031 -1.949219 11.78125 -1.441406 C 11.359375 -0.9375 10.789062 -0.511719 10.070312 -0.171875 C 9.355469 0.171875 8.457031 0.34375 7.382812 0.34375 M 3.863281 -7.261719 L 10.558594 -7.261719 C 10.476562 -8.15625 10.144531 -8.863281 9.558594 -9.386719 C 8.972656 -9.90625 8.203125 -10.167969 7.261719 -10.167969 C 6.316406 -10.167969 5.542969 -9.90625 4.949219 -9.386719 C 4.355469 -8.863281 3.992188 -8.15625 3.863281 -7.261719 Z "/>
</g>
<g id="glyph-0-2">
<path d="M 1.859375 0 L 1.859375 -17.109375 L 4.375 -17.109375 L 4.375 0 Z "/>
</g>
<g id="glyph-0-3">
<path d="M 7.503906 0.34375 C 6.296875 0.34375 5.226562 0.09375 4.289062 -0.402344 C 3.351562 -0.898438 2.617188 -1.613281 2.078125 -2.542969 C 1.539062 -3.472656 1.269531 -4.570312 1.269531 -5.84375 L 1.269531 -6.207031 C 1.269531 -7.480469 1.539062 -8.574219 2.078125 -9.496094 C 2.617188 -10.417969 3.351562 -11.128906 4.289062 -11.636719 C 5.226562 -12.140625 6.296875 -12.394531 7.503906 -12.394531 C 8.710938 -12.394531 9.785156 -12.140625 10.730469 -11.636719 C 11.675781 -11.128906 12.417969 -10.417969 12.957031 -9.496094 C 13.492188 -8.574219 13.761719 -7.480469 13.761719 -6.207031 L 13.761719 -5.84375 C 13.761719 -4.570312 13.492188 -3.472656 12.957031 -2.542969 C 12.417969 -1.613281 11.675781 -0.898438 10.730469 -0.402344 C 9.785156 0.09375 8.710938 0.34375 7.503906 0.34375 M 7.503906 -1.90625 C 8.613281 -1.90625 9.511719 -2.261719 10.207031 -2.96875 C 10.898438 -3.679688 11.246094 -4.660156 11.246094 -5.914062 L 11.246094 -6.136719 C 11.246094 -7.390625 10.898438 -8.371094 10.207031 -9.082031 C 9.511719 -9.789062 8.613281 -10.144531 7.503906 -10.144531 C 6.394531 -10.144531 5.5 -9.789062 4.816406 -9.082031 C 4.132812 -8.371094 3.789062 -7.390625 3.789062 -6.136719 L 3.789062 -5.914062 C 3.789062 -4.660156 4.136719 -3.679688 4.828125 -2.96875 C 5.519531 -2.261719 6.414062 -1.90625 7.503906 -1.90625 Z "/>
</g>
<g id="glyph-0-4">
<path d="M 7.457031 0.34375 C 6.296875 0.34375 5.25 0.0976562 4.3125 -0.390625 C 3.378906 -0.878906 2.636719 -1.589844 2.089844 -2.519531 C 1.542969 -3.445312 1.269531 -4.5625 1.269531 -5.867188 L 1.269531 -6.183594 C 1.269531 -7.472656 1.542969 -8.578125 2.089844 -9.507812 C 2.636719 -10.4375 3.378906 -11.152344 4.3125 -11.648438 C 5.25 -12.144531 6.296875 -12.394531 7.457031 -12.394531 C 8.613281 -12.394531 9.601562 -12.179688 10.425781 -11.757812 C 11.25 -11.332031 11.898438 -10.773438 12.382812 -10.070312 C 12.863281 -9.371094 13.183594 -8.597656 13.347656 -7.75 L 10.902344 -7.234375 C 10.789062 -8.035156 10.457031 -8.71875 9.910156 -9.289062 C 9.367188 -9.859375 8.5625 -10.144531 7.503906 -10.144531 C 6.460938 -10.144531 5.582031 -9.792969 4.863281 -9.09375 C 4.148438 -8.390625 3.789062 -7.40625 3.789062 -6.136719 L 3.789062 -5.914062 C 3.789062 -4.644531 4.148438 -3.660156 4.863281 -2.957031 C 5.582031 -2.257812 6.460938 -1.90625 7.503906 -1.90625 C 8.5625 -1.90625 9.371094 -2.179688 9.925781 -2.726562 C 10.476562 -3.269531 10.828125 -3.96875 10.976562 -4.816406 L 13.417969 -4.253906 C 13.222656 -3.421875 12.878906 -2.65625 12.382812 -1.957031 C 11.882812 -1.253906 11.226562 -0.695312 10.414062 -0.28125 C 9.597656 0.132812 8.613281 0.34375 7.457031 0.34375 Z "/>
</g>
<g id="glyph-0-5">
<path d="M 1.859375 0 L 1.859375 -12.050781 L 4.375 -12.050781 L 4.375 0 L 1.859375 0 M 3.128906 -13.6875 C 2.640625 -13.6875 2.226562 -13.847656 1.894531 -14.164062 C 1.558594 -14.484375 1.394531 -14.894531 1.394531 -15.398438 C 1.394531 -15.90625 1.558594 -16.316406 1.894531 -16.632812 C 2.226562 -16.953125 2.640625 -17.109375 3.128906 -17.109375 C 3.617188 -17.109375 4.027344 -16.953125 4.363281 -16.632812 C 4.699219 -16.316406 4.863281 -15.90625 4.863281 -15.398438 C 4.863281 -14.894531 4.699219 -14.484375 4.363281 -14.164062 C 4.027344 -13.847656 3.617188 -13.6875 3.128906 -13.6875 Z "/>
</g>
<g id="glyph-0-6">
<path d="M 6.84375 0.34375 C 5.832031 0.34375 4.910156 0.0976562 4.070312 -0.390625 C 3.230469 -0.878906 2.554688 -1.585938 2.042969 -2.503906 C 1.527344 -3.425781 1.269531 -4.539062 1.269531 -5.84375 L 1.269531 -6.207031 C 1.269531 -7.496094 1.523438 -8.601562 2.027344 -9.519531 C 2.535156 -10.441406 3.210938 -11.152344 4.058594 -11.648438 C 4.90625 -12.144531 5.832031 -12.394531 6.84375 -12.394531 C 8.019531 -12.394531 8.917969 -12.183594 9.546875 -11.769531 C 10.171875 -11.355469 10.625 -10.902344 10.902344 -10.414062 L 11.292969 -10.414062 L 11.292969 -17.109375 L 13.8125 -17.109375 L 13.8125 0 L 11.34375 0 L 11.34375 -1.710938 L 10.949219 -1.710938 C 10.640625 -1.191406 10.171875 -0.71875 9.546875 -0.292969 C 8.917969 0.128906 8.019531 0.34375 6.84375 0.34375 M 7.554688 -1.859375 C 8.644531 -1.859375 9.546875 -2.207031 10.253906 -2.910156 C 10.964844 -3.609375 11.316406 -4.613281 11.316406 -5.914062 L 11.316406 -6.136719 C 11.316406 -7.421875 10.964844 -8.417969 10.253906 -9.117188 C 9.546875 -9.816406 8.644531 -10.167969 7.554688 -10.167969 C 6.460938 -10.167969 5.566406 -9.816406 4.863281 -9.117188 C 4.164062 -8.417969 3.8125 -7.421875 3.8125 -6.136719 L 3.8125 -5.914062 C 3.8125 -4.613281 4.167969 -3.609375 4.875 -2.910156 C 5.585938 -2.207031 6.476562 -1.859375 7.554688 -1.859375 Z "/>
</g>
<g id="glyph-0-7">
<path d="M 5.597656 0.34375 C 4.734375 0.34375 3.964844 0.195312 3.289062 -0.0976562 C 2.613281 -0.390625 2.074219 -0.824219 1.675781 -1.394531 C 1.273438 -1.964844 1.074219 -2.65625 1.074219 -3.472656 C 1.074219 -4.691406 1.511719 -5.617188 2.382812 -6.246094 C 3.253906 -6.871094 4.351562 -7.1875 5.671875 -7.1875 L 9.335938 -7.1875 L 9.335938 -7.96875 C 9.335938 -8.652344 9.125 -9.210938 8.703125 -9.644531 C 8.277344 -10.074219 7.625 -10.289062 6.746094 -10.289062 C 5.882812 -10.289062 5.222656 -10.085938 4.765625 -9.679688 C 4.308594 -9.273438 4.007812 -8.742188 3.863281 -8.089844 L 1.515625 -8.847656 C 1.710938 -9.484375 2.023438 -10.070312 2.457031 -10.609375 C 2.886719 -11.144531 3.457031 -11.578125 4.167969 -11.902344 C 4.875 -12.230469 5.746094 -12.394531 6.769531 -12.394531 C 8.335938 -12.394531 9.566406 -11.992188 10.460938 -11.195312 C 11.359375 -10.398438 11.804688 -9.265625 11.804688 -7.796875 L 11.804688 -2.835938 C 11.804688 -2.347656 12.035156 -2.101562 12.492188 -2.101562 L 13.515625 -2.101562 L 13.515625 0 L 11.636719 0 C 11.082031 0 10.625 -0.148438 10.265625 -0.441406 C 9.90625 -0.734375 9.730469 -1.132812 9.730469 -1.636719 L 9.730469 -1.710938 L 9.335938 -1.710938 C 9.207031 -1.449219 9.011719 -1.160156 8.75 -0.84375 C 8.488281 -0.527344 8.105469 -0.25 7.601562 -0.0117188 C 7.097656 0.222656 6.429688 0.34375 5.597656 0.34375 M 5.964844 -1.734375 C 6.957031 -1.734375 7.769531 -2.023438 8.398438 -2.601562 C 9.023438 -3.183594 9.335938 -3.976562 9.335938 -4.988281 L 9.335938 -5.230469 L 5.816406 -5.230469 C 5.148438 -5.230469 4.613281 -5.089844 4.203125 -4.804688 C 3.796875 -4.519531 3.59375 -4.097656 3.59375 -3.542969 C 3.59375 -2.992188 3.804688 -2.550781 4.230469 -2.222656 C 4.652344 -1.898438 5.230469 -1.734375 5.964844 -1.734375 Z "/>
</g>
<g id="glyph-0-8">
</g>
<g id="glyph-0-9">
<path d="M 1.859375 0 L 1.859375 -12.050781 L 4.328125 -12.050781 L 4.328125 -10.632812 L 4.71875 -10.632812 C 4.914062 -11.136719 5.222656 -11.507812 5.648438 -11.746094 C 6.070312 -11.980469 6.609375 -12.101562 7.261719 -12.101562 L 8.703125 -12.101562 L 8.703125 -9.828125 L 7.160156 -9.828125 C 6.332031 -9.828125 5.660156 -9.601562 5.144531 -9.152344 C 4.632812 -8.707031 4.375 -8.019531 4.375 -7.089844 L 4.375 0 Z "/>
</g>
<g id="glyph-0-10">
<path d="M 6.378906 0 C 5.648438 0 5.0625 -0.21875 4.632812 -0.660156 C 4.199219 -1.101562 3.984375 -1.6875 3.984375 -2.421875 L 3.984375 -9.925781 L 0.660156 -9.925781 L 0.660156 -12.050781 L 3.984375 -12.050781 L 3.984375 -16.035156 L 6.503906 -16.035156 L 6.503906 -12.050781 L 10.09375 -12.050781 L 10.09375 -9.925781 L 6.503906 -9.925781 L 6.503906 -2.859375 C 6.503906 -2.371094 6.730469 -2.125 7.1875 -2.125 L 9.703125 -2.125 L 9.703125 0 Z "/>
</g>
</g>
</defs>
<g fill="rgb(67.843137%, 72.156863%, 81.960784%)" fill-opacity="1">
<use xlink:href="#glyph-0-0" x="30" y="44.052734"/>
<use xlink:href="#glyph-0-1" x="43" y="44.052734"/>
<use xlink:href="#glyph-0-2" x="57" y="44.052734"/>
<use xlink:href="#glyph-0-3" x="63" y="44.052734"/>
<use xlink:href="#glyph-0-4" x="78" y="44.052734"/>
<use xlink:href="#glyph-0-5" x="92" y="44.052734"/>
<use xlink:href="#glyph-0-6" x="98" y="44.052734"/>
<use xlink:href="#glyph-0-7" x="114" y="44.052734"/>
<use xlink:href="#glyph-0-6" x="128" y="44.052734"/>
<use xlink:href="#glyph-0-1" x="144" y="44.052734"/>
<use xlink:href="#glyph-0-8" x="158" y="44.052734"/>
<use xlink:href="#glyph-0-9" x="164" y="44.052734"/>
<use xlink:href="#glyph-0-1" x="173" y="44.052734"/>
<use xlink:href="#glyph-0-2" x="187" y="44.052734"/>
<use xlink:href="#glyph-0-7" x="193" y="44.052734"/>
<use xlink:href="#glyph-0-10" x="206" y="44.052734"/>
<use xlink:href="#glyph-0-5" x="217" y="44.052734"/>
<use xlink:href="#glyph-0-0" x="223" y="44.052734"/>
<use xlink:href="#glyph-0-7" x="236" y="44.052734"/>
</g>
</svg>
