<?xml version="1.0" encoding="UTF-8"?>
<svg xmlns="http://www.w3.org/2000/svg" xmlns:xlink="http://www.w3.org/1999/xlink" width="4000" height="4000" viewBox="0 0 4000 4000">
<defs>
<g>
<g id="glyph-0-0">
<path d="M 0.660156 0 L 6.628906 -21 L 12.328125 -21 L 18.300781 0 L 14.96875 0 L 13.589844 -4.949219 L 5.371094 -4.949219 L 3.988281 0 L 0.660156 0 M 6.179688 -7.949219 L 12.78125 -7.949219 L 9.71875 -18.988281 L 9.238281 -18.988281 Z "/>
</g>
<g id="glyph-0-1">
<path d="M 2.191406 0 L 2.191406 -21 L 8.28125 -21 L 12.871094 -2.160156 L 13.351562 -2.160156 L 17.941406 -21 L 24.03125 -21 L 24.03125 0 L 20.878906 0 L 20.878906 -18.71875 L 20.398438 -18.71875 L 15.839844 0 L 10.378906 0 L 5.820312 -18.71875 L 5.339844 -18.71875 L 5.339844 0 Z "/>
</g>
<g id="glyph-0-2">
<path d="M 2.191406 0 L 2.191406 -21 L 10.53125 -21 C 11.808594 -21 12.953125 -20.746094 13.964844 -20.234375 C 14.976562 -19.726562 15.765625 -19.003906 16.335938 -18.074219 C 16.90625 -17.144531 17.191406 -16.03125 17.191406 -14.730469 L 17.191406 -14.339844 C 17.191406 -13.039062 16.894531 -11.921875 16.304688 -10.980469 C 15.714844 -10.039062 14.921875 -9.320312 13.921875 -8.820312 C 12.921875 -8.320312 11.789062 -8.070312 10.53125 -8.070312 L 5.429688 -8.070312 L 5.429688 0 L 2.191406 0 M 5.429688 -11.011719 L 10.199219 -11.011719 C 11.320312 -11.011719 12.226562 -11.304688 12.914062 -11.894531 C 13.605469 -12.484375 13.949219 -13.308594 13.949219 -14.371094 L 13.949219 -14.671875 C 13.949219 -15.730469 13.609375 -16.558594 12.929688 -17.160156 C 12.25 -17.761719 11.339844 -18.058594 10.199219 -18.058594 L 5.429688 -18.058594 Z "/>
</g>
<g id="glyph-0-3">
<path d="M 2.191406 0 L 2.191406 -21 L 15.421875 -21 L 15.421875 -18.058594 L 5.429688 -18.058594 L 5.429688 -12.03125 L 14.578125 -12.03125 L 14.578125 -9.089844 L 5.429688 -9.089844 L 5.429688 -2.941406 L 15.570312 -2.941406 L 15.570312 0 L 2.191406 0 M 8.128906 -22.769531 L 5.25 -26.550781 L 8.910156 -26.550781 L 10.980469 -22.769531 Z "/>
</g>
<g id="glyph-0-4">
<path d="M 2.191406 0 L 2.191406 -21 L 11.011719 -21 C 12.308594 -21 13.449219 -20.769531 14.429688 -20.308594 C 15.410156 -19.851562 16.179688 -19.203125 16.738281 -18.375 C 17.300781 -17.546875 17.578125 -16.550781 17.578125 -15.390625 L 17.578125 -15.058594 C 17.578125 -13.738281 17.265625 -12.683594 16.636719 -11.894531 C 16.003906 -11.105469 15.238281 -10.550781 14.339844 -10.230469 L 14.339844 -9.75 C 15.101562 -9.710938 15.710938 -9.449219 16.171875 -8.96875 C 16.628906 -8.488281 16.859375 -7.820312 16.859375 -6.960938 L 16.859375 0 L 13.621094 0 L 13.621094 -6.511719 C 13.621094 -7.050781 13.476562 -7.480469 13.183594 -7.800781 C 12.894531 -8.121094 12.441406 -8.28125 11.820312 -8.28125 L 5.429688 -8.28125 L 5.429688 0 L 2.191406 0 M 5.429688 -11.21875 L 10.648438 -11.21875 C 11.808594 -11.21875 12.710938 -11.511719 13.351562 -12.089844 C 13.988281 -12.671875 14.308594 -13.480469 14.308594 -14.519531 L 14.308594 -14.761719 C 14.308594 -15.78125 13.996094 -16.585938 13.363281 -17.175781 C 12.734375 -17.765625 11.828125 -18.058594 10.648438 -18.058594 L 5.429688 -18.058594 Z "/>
</g>
<g id="glyph-0-5">
<path d="M 2.191406 0 L 2.191406 -21 L 15.421875 -21 L 15.421875 -18.058594 L 5.429688 -18.058594 L 5.429688 -12.03125 L 14.578125 -12.03125 L 14.578125 -9.089844 L 5.429688 -9.089844 L 5.429688 -2.941406 L 15.570312 -2.941406 L 15.570312 0 Z "/>
</g>
<g id="glyph-0-6">
</g>
<g id="glyph-0-7">
<path d="M 3.058594 -6.148438 C 2.359375 -6.148438 1.773438 -6.378906 1.304688 -6.839844 C 0.835938 -7.300781 0.601562 -7.890625 0.601562 -8.609375 C 0.601562 -9.328125 0.835938 -9.914062 1.304688 -10.363281 C 1.773438 -10.816406 2.359375 -11.039062 3.058594 -11.039062 C 3.761719 -11.039062 4.34375 -10.816406 4.816406 -10.363281 C 5.285156 -9.914062 5.519531 -9.328125 5.519531 -8.609375 C 5.519531 -7.890625 5.285156 -7.300781 4.816406 -6.839844 C 4.34375 -6.378906 3.761719 -6.148438 3.058594 -6.148438 Z "/>
</g>
<g id="glyph-0-8">
<path d="M 9.988281 0.421875 C 7.429688 0.421875 5.398438 -0.304688 3.898438 -1.753906 C 2.398438 -3.203125 1.648438 -5.300781 1.648438 -8.039062 L 1.648438 -12.960938 C 1.648438 -15.699219 2.398438 -17.796875 3.898438 -19.246094 C 5.398438 -20.695312 7.429688 -21.421875 9.988281 -21.421875 C 12.511719 -21.421875 14.453125 -20.71875 15.824219 -19.320312 C 17.195312 -17.921875 17.878906 -16.011719 17.878906 -13.589844 L 17.878906 -13.441406 L 14.671875 -13.441406 L 14.671875 -13.679688 C 14.671875 -15.101562 14.285156 -16.261719 13.515625 -17.160156 C 12.746094 -18.058594 11.570312 -18.511719 9.988281 -18.511719 C 8.390625 -18.511719 7.140625 -18.023438 6.238281 -17.054688 C 5.339844 -16.085938 4.890625 -14.738281 4.890625 -13.019531 L 4.890625 -7.980469 C 4.890625 -6.261719 5.339844 -4.914062 6.238281 -3.945312 C 7.140625 -2.976562 8.390625 -2.488281 9.988281 -2.488281 C 11.570312 -2.488281 12.746094 -2.941406 13.515625 -3.839844 C 14.285156 -4.738281 14.671875 -5.898438 14.671875 -7.320312 L 14.671875 -7.828125 L 17.878906 -7.828125 L 17.878906 -7.410156 C 17.878906 -4.988281 17.195312 -3.078125 15.824219 -1.679688 C 14.453125 -0.28125 12.511719 0.421875 9.988281 0.421875 Z "/>
</g>
<g id="glyph-0-9">
<path d="M 10.050781 0.421875 C 7.570312 0.421875 5.613281 -0.246094 4.183594 -1.574219 C 2.753906 -2.90625 2.039062 -4.78125 2.039062 -7.199219 L 2.039062 -21 L 5.308594 -21 L 5.308594 -7.109375 C 5.308594 -5.628906 5.71875 -4.488281 6.539062 -3.691406 C 7.359375 -2.890625 8.53125 -2.488281 10.050781 -2.488281 C 11.570312 -2.488281 12.738281 -2.890625 13.558594 -3.691406 C 14.378906 -4.488281 14.789062 -5.628906 14.789062 -7.109375 L 14.789062 -21 L 18.03125 -21 L 18.03125 -7.199219 C 18.03125 -4.78125 17.316406 -2.90625 15.886719 -1.574219 C 14.453125 -0.246094 12.511719 0.421875 10.050781 0.421875 Z "/>
</g>
<g id="glyph-0-10">
<path d="M 6.480469 0 L 0.660156 -21 L 3.988281 -21 L 9.089844 -2.039062 L 9.480469 -2.039062 L 14.550781 -21 L 17.910156 -21 L 12.089844 0 Z "/>
</g>
<g id="glyph-0-11">
<path d="M 2.191406 0 L 2.191406 -21 L 15.148438 -21 L 15.148438 -18.058594 L 5.429688 -18.058594 L 5.429688 -12 L 14.371094 -12 L 14.371094 -9.058594 L 5.429688 -9.058594 L 5.429688 0 Z "/>
</g>
<g id="glyph-0-12">
<path d="M 2.191406 0 L 2.191406 -21 L 5.429688 -21 L 5.429688 -12 L 14.25 -12 L 14.25 -21 L 17.488281 -21 L 17.488281 0 L 14.25 0 L 14.25 -9.058594 L 5.429688 -9.058594 L 5.429688 0 Z "/>
</g>
<g id="glyph-0-13">
<path d="M 1.410156 0 L 1.410156 -2.878906 L 4.261719 -2.878906 L 4.261719 -18.121094 L 1.410156 -18.121094 L 1.410156 -21 L 9.808594 -21 C 12.589844 -21 14.730469 -20.289062 16.230469 -18.871094 C 17.730469 -17.449219 18.480469 -15.308594 18.480469 -12.449219 L 18.480469 -8.519531 C 18.480469 -5.660156 17.730469 -3.523438 16.230469 -2.113281 C 14.730469 -0.703125 12.589844 0 9.808594 0 L 1.410156 0 M 7.5 -2.941406 L 9.839844 -2.941406 C 13.441406 -2.941406 15.238281 -4.769531 15.238281 -8.429688 L 15.238281 -12.570312 C 15.238281 -16.210938 13.441406 -18.03125 9.839844 -18.03125 L 7.5 -18.03125 Z "/>
</g>
</g>
</defs>
<g fill="rgb(61.176471%, 54.901961%, 100%)" fill-opacity="1">
<use xlink:href="#glyph-0-0" x="30" y="49.519531"/>
<use xlink:href="#glyph-0-1" x="49" y="49.519531"/>
<use xlink:href="#glyph-0-2" x="75" y="49.519531"/>
<use xlink:href="#glyph-0-3" x="93" y="49.519531"/>
<use xlink:href="#glyph-0-4" x="110" y="49.519531"/>
<use xlink:href="#glyph-0-5" x="129" y="49.519531"/>
<use xlink:href="#glyph-0-6" x="146" y="49.519531"/>
<use xlink:href="#glyph-0-7" x="154" y="49.519531"/>
<use xlink:href="#glyph-0-6" x="160" y="49.519531"/>
<use xlink:href="#glyph-0-8" x="168" y="49.519531"/>
<use xlink:href="#glyph-0-9" x="187" y="49.519531"/>
<use xlink:href="#glyph-0-4" x="207" y="49.519531"/>
<use xlink:href="#glyph-0-10" x="226" y="49.519531"/>
<use xlink:href="#glyph-0-0" x="243" y="49.519531"/>
<use xlink:href="#glyph-0-6" x="262" y="49.519531"/>
<use xlink:href="#glyph-0-11" x="270" y="49.519531"/>
<use xlink:href="#glyph-0-5" x="286" y="49.519531"/>
<use xlink:href="#glyph-0-8" x="303" y="49.519531"/>
<use xlink:href="#glyph-0-12" x="322" y="49.519531"/>
<use xlink:href="#glyph-0-0" x="342" y="49.519531"/>
<use xlink:href="#glyph-0-13" x="361" y="49.519531"/>
<use xlink:href="#glyph-0-0" x="381" y="49.519531"/>
</g>
</svg>
