<?xml version="1.0" encoding="UTF-8"?>
<svg xmlns="http://www.w3.org/2000/svg" xmlns:xlink="http://www.w3.org/1999/xlink" width="4000" height="4000" viewBox="0 0 4000 4000">
<defs>
<g>
<g id="glyph-0-0">
<path d="M 3.082031 0 L 3.082031 -29.554688 L 15.496094 -29.554688 C 17.324219 -29.554688 18.929688 -29.230469 20.308594 -28.585938 C 21.6875 -27.9375 22.773438 -27.03125 23.558594 -25.863281 C 24.347656 -24.691406 24.742188 -23.292969 24.742188 -21.660156 L 24.742188 -21.195312 C 24.742188 -19.339844 24.300781 -17.851562 23.414062 -16.742188 C 22.527344 -15.628906 21.449219 -14.847656 20.183594 -14.398438 L 20.183594 -13.722656 C 21.253906 -13.667969 22.109375 -13.300781 22.757812 -12.625 C 23.40625 -11.949219 23.730469 -11.007812 23.730469 -9.796875 L 23.730469 0 L 19.167969 0 L 19.167969 -9.164062 C 19.167969 -9.921875 18.964844 -10.527344 18.558594 -10.976562 C 18.148438 -11.429688 17.507812 -11.652344 16.636719 -11.652344 L 7.640625 -11.652344 L 7.640625 0 L 3.082031 0 M 7.640625 -15.792969 L 14.988281 -15.792969 C 16.621094 -15.792969 17.886719 -16.199219 18.789062 -17.015625 C 19.691406 -17.832031 20.140625 -18.972656 20.140625 -20.4375 L 20.140625 -20.773438 C 20.140625 -22.210938 19.695312 -23.34375 18.808594 -24.171875 C 17.921875 -25.003906 16.648438 -25.417969 14.988281 -25.417969 L 7.640625 -25.417969 Z "/>
</g>
<g id="glyph-0-1">
<path d="M 3.082031 0 L 3.082031 -29.554688 L 21.703125 -29.554688 L 21.703125 -25.417969 L 7.640625 -25.417969 L 7.640625 -16.929688 L 20.519531 -16.929688 L 20.519531 -12.792969 L 7.640625 -12.792969 L 7.640625 -4.136719 L 21.914062 -4.136719 L 21.914062 0 Z "/>
</g>
<g id="glyph-0-2">
<path d="M 3.082031 0 L 3.082031 -29.554688 L 14.820312 -29.554688 C 16.621094 -29.554688 18.234375 -29.195312 19.65625 -28.480469 C 21.074219 -27.761719 22.1875 -26.75 22.992188 -25.4375 C 23.792969 -24.128906 24.195312 -22.5625 24.195312 -20.730469 L 24.195312 -20.183594 C 24.195312 -18.351562 23.777344 -16.777344 22.949219 -15.453125 C 22.117188 -14.128906 21 -13.117188 19.589844 -12.414062 C 18.183594 -11.710938 16.59375 -11.359375 14.820312 -11.359375 L 7.640625 -11.359375 L 7.640625 0 L 3.082031 0 M 7.640625 -15.496094 L 14.355469 -15.496094 C 15.933594 -15.496094 17.207031 -15.910156 18.175781 -16.742188 C 19.148438 -17.570312 19.632812 -18.734375 19.632812 -20.226562 L 19.632812 -20.648438 C 19.632812 -22.140625 19.15625 -23.308594 18.199219 -24.152344 C 17.242188 -24.996094 15.960938 -25.417969 14.355469 -25.417969 L 7.640625 -25.417969 Z "/>
</g>
<g id="glyph-0-3">
<path d="M 14.144531 0.589844 C 10.652344 0.589844 7.902344 -0.34375 5.890625 -2.214844 C 3.878906 -4.089844 2.871094 -6.726562 2.871094 -10.132812 L 2.871094 -29.554688 L 7.472656 -29.554688 L 7.472656 -10.007812 C 7.472656 -7.921875 8.050781 -6.320312 9.203125 -5.195312 C 10.359375 -4.066406 12.003906 -3.503906 14.144531 -3.503906 C 16.285156 -3.503906 17.929688 -4.066406 19.085938 -5.195312 C 20.238281 -6.320312 20.816406 -7.921875 20.816406 -10.007812 L 20.816406 -29.554688 L 25.375 -29.554688 L 25.375 -10.132812 C 25.375 -6.726562 24.371094 -4.089844 22.355469 -2.214844 C 20.34375 -0.34375 17.605469 0.589844 14.144531 0.589844 Z "/>
</g>
<g id="glyph-0-4">
<path d="M 3.082031 0 L 3.082031 -29.554688 L 7.640625 -29.554688 L 7.640625 -4.136719 L 21.871094 -4.136719 L 21.871094 0 Z "/>
</g>
<g id="glyph-0-5">
<path d="M 13.132812 0.589844 C 10.90625 0.589844 8.9375 0.195312 7.21875 -0.589844 C 5.503906 -1.378906 4.160156 -2.539062 3.1875 -4.074219 C 2.214844 -5.609375 1.730469 -7.472656 1.730469 -9.667969 L 1.730469 -10.722656 L 6.25 -10.722656 L 6.25 -9.667969 C 6.25 -7.558594 6.875 -5.988281 8.128906 -4.960938 C 9.378906 -3.933594 11.046875 -3.421875 13.132812 -3.421875 C 15.214844 -3.421875 16.796875 -3.863281 17.882812 -4.75 C 18.964844 -5.636719 19.507812 -6.785156 19.507812 -8.191406 C 19.507812 -9.597656 18.949219 -10.617188 17.839844 -11.253906 C 16.726562 -11.886719 15.199219 -12.425781 13.257812 -12.878906 L 11.695312 -13.257812 C 9.78125 -13.679688 8.136719 -14.230469 6.753906 -14.90625 C 5.375 -15.582031 4.308594 -16.46875 3.546875 -17.566406 C 2.785156 -18.664062 2.40625 -20.070312 2.40625 -21.785156 C 2.40625 -24.40625 3.34375 -26.453125 5.214844 -27.929688 C 7.085938 -29.40625 9.554688 -30.148438 12.625 -30.148438 C 14.679688 -30.148438 16.515625 -29.796875 18.132812 -29.089844 C 19.753906 -28.386719 21.027344 -27.347656 21.957031 -25.96875 C 22.882812 -24.585938 23.347656 -22.855469 23.347656 -20.773438 L 23.347656 -19.253906 L 18.832031 -19.253906 L 18.832031 -20.773438 C 18.832031 -22.6875 18.261719 -24.058594 17.121094 -24.890625 C 15.980469 -25.71875 14.480469 -26.136719 12.625 -26.136719 C 10.796875 -26.136719 9.386719 -25.761719 8.402344 -25.015625 C 7.417969 -24.269531 6.925781 -23.238281 6.925781 -21.914062 C 6.925781 -20.5625 7.410156 -19.5625 8.382812 -18.914062 C 9.351562 -18.269531 10.78125 -17.734375 12.667969 -17.3125 L 14.230469 -16.929688 C 16.113281 -16.507812 17.796875 -15.96875 19.273438 -15.304688 C 20.753906 -14.644531 21.914062 -13.75 22.757812 -12.625 C 23.601562 -11.5 24.023438 -10.050781 24.023438 -8.277344 C 24.023438 -6.503906 23.582031 -4.953125 22.695312 -3.632812 C 21.808594 -2.308594 20.546875 -1.273438 18.914062 -0.527344 C 17.28125 0.21875 15.355469 0.589844 13.132812 0.589844 Z "/>
</g>
<g id="glyph-0-6">
<path d="M 0.929688 0 L 9.332031 -29.554688 L 17.351562 -29.554688 L 25.753906 0 L 21.070312 0 L 19.125 -6.964844 L 7.558594 -6.964844 L 5.617188 0 L 0.929688 0 M 8.699219 -11.1875 L 17.988281 -11.1875 L 13.679688 -26.726562 L 13.003906 -26.726562 L 8.699219 -11.1875 M 8.359375 -31.75 L 5.996094 -33.523438 L 7.347656 -35.46875 C 7.769531 -36.058594 8.246094 -36.535156 8.78125 -36.902344 C 9.316406 -37.269531 9.964844 -37.453125 10.722656 -37.453125 C 11.398438 -37.453125 11.964844 -37.332031 12.414062 -37.09375 C 12.863281 -36.851562 13.34375 -36.496094 13.847656 -36.015625 C 14.160156 -35.707031 14.453125 -35.445312 14.734375 -35.234375 C 15.015625 -35.023438 15.339844 -34.917969 15.707031 -34.917969 C 16.101562 -34.917969 16.425781 -35.039062 16.679688 -35.277344 C 16.929688 -35.515625 17.171875 -35.777344 17.394531 -36.058594 L 18.324219 -37.367188 L 20.648438 -35.636719 L 19.296875 -33.652344 C 18.875 -33.058594 18.394531 -32.582031 17.859375 -32.214844 C 17.324219 -31.851562 16.679688 -31.667969 15.917969 -31.667969 C 15.269531 -31.667969 14.722656 -31.785156 14.269531 -32.027344 C 13.820312 -32.265625 13.34375 -32.625 12.835938 -33.101562 C 12.496094 -33.414062 12.1875 -33.679688 11.90625 -33.90625 C 11.625 -34.128906 11.300781 -34.242188 10.9375 -34.242188 C 10.542969 -34.242188 10.21875 -34.117188 9.964844 -33.863281 C 9.710938 -33.609375 9.472656 -33.34375 9.246094 -33.058594 Z "/>
</g>
<g id="glyph-0-7">
<path d="M 14.1875 0.589844 C 10.554688 0.589844 7.671875 -0.429688 5.53125 -2.46875 C 3.390625 -4.511719 2.320312 -7.460938 2.320312 -11.316406 L 2.320312 -18.238281 C 2.320312 -22.097656 3.390625 -25.046875 5.53125 -27.085938 C 7.671875 -29.125 10.554688 -30.148438 14.1875 -30.148438 C 17.816406 -30.148438 20.710938 -29.125 22.863281 -27.085938 C 25.015625 -25.046875 26.09375 -22.097656 26.09375 -18.238281 L 26.09375 -11.316406 C 26.09375 -7.460938 25.015625 -4.511719 22.863281 -2.46875 C 20.710938 -0.429688 17.816406 0.589844 14.1875 0.589844 M 14.1875 -3.503906 C 16.496094 -3.503906 18.289062 -4.1875 19.570312 -5.550781 C 20.851562 -6.917969 21.492188 -8.78125 21.492188 -11.148438 L 21.492188 -18.410156 C 21.492188 -20.773438 20.851562 -22.636719 19.570312 -24.003906 C 18.289062 -25.367188 16.496094 -26.050781 14.1875 -26.050781 C 11.878906 -26.050781 10.085938 -25.367188 8.804688 -24.003906 C 7.523438 -22.636719 6.882812 -20.773438 6.882812 -18.410156 L 6.882812 -11.148438 C 6.882812 -8.78125 7.523438 -6.917969 8.804688 -5.550781 C 10.085938 -4.1875 11.878906 -3.503906 14.1875 -3.503906 Z "/>
</g>
<g id="glyph-0-8">
</g>
<g id="glyph-0-9">
<path d="M 3.082031 0 L 3.082031 -29.554688 L 7.640625 -29.554688 L 7.640625 0 L 3.082031 0 M 2.535156 -32.003906 L 5.445312 -37.324219 L 10.597656 -37.324219 L 6.542969 -32.003906 Z "/>
</g>
<g id="glyph-0-10">
<path d="M 16.003906 7.21875 C 14.792969 7.21875 13.8125 6.847656 13.066406 6.101562 C 12.320312 5.355469 11.949219 4.347656 11.949219 3.082031 L 11.949219 0.464844 C 8.992188 0.0703125 6.648438 -1.132812 4.917969 -3.144531 C 3.1875 -5.15625 2.320312 -7.882812 2.320312 -11.316406 L 2.320312 -18.238281 C 2.320312 -22.097656 3.390625 -25.046875 5.53125 -27.085938 C 7.671875 -29.125 10.554688 -30.148438 14.1875 -30.148438 C 17.816406 -30.148438 20.710938 -29.125 22.863281 -27.085938 C 25.015625 -25.046875 26.09375 -22.097656 26.09375 -18.238281 L 26.09375 -11.316406 C 26.09375 -7.851562 25.226562 -5.121094 23.496094 -3.125 C 21.765625 -1.125 19.410156 0.0703125 16.425781 0.464844 L 16.425781 2.320312 C 16.425781 3.167969 16.820312 3.589844 17.605469 3.589844 L 20.226562 3.589844 L 20.226562 7.21875 L 16.003906 7.21875 M 14.1875 -3.503906 C 16.496094 -3.503906 18.289062 -4.1875 19.570312 -5.550781 C 20.851562 -6.917969 21.492188 -8.78125 21.492188 -11.148438 L 21.492188 -18.410156 C 21.492188 -20.773438 20.851562 -22.636719 19.570312 -24.003906 C 18.289062 -25.367188 16.496094 -26.050781 14.1875 -26.050781 C 11.878906 -26.050781 10.085938 -25.367188 8.804688 -24.003906 C 7.523438 -22.636719 6.882812 -20.773438 6.882812 -18.410156 L 6.882812 -11.148438 C 6.882812 -8.78125 7.523438 -6.917969 8.804688 -5.550781 C 10.085938 -4.1875 11.878906 -3.503906 14.1875 -3.503906 Z "/>
</g>
<g id="glyph-0-11">
<path d="M 3.082031 0 L 3.082031 -29.554688 L 7.640625 -29.554688 L 7.640625 0 Z "/>
</g>
<g id="glyph-0-12">
<path d="M 1.984375 0 L 1.984375 -4.054688 L 5.996094 -4.054688 L 5.996094 -25.503906 L 1.984375 -25.503906 L 1.984375 -29.554688 L 13.808594 -29.554688 C 17.71875 -29.554688 20.730469 -28.554688 22.84375 -26.558594 C 24.953125 -24.558594 26.007812 -21.546875 26.007812 -17.523438 L 26.007812 -11.992188 C 26.007812 -7.964844 24.953125 -4.960938 22.84375 -2.976562 C 20.730469 -0.992188 17.71875 0 13.808594 0 L 1.984375 0 M 10.554688 -4.136719 L 13.847656 -4.136719 C 18.914062 -4.136719 21.449219 -6.714844 21.449219 -11.863281 L 21.449219 -17.691406 C 21.449219 -22.8125 18.914062 -25.375 13.847656 -25.375 L 10.554688 -25.375 Z "/>
</g>
<g id="glyph-0-13">
<path d="M 0.929688 0 L 9.332031 -29.554688 L 17.351562 -29.554688 L 25.753906 0 L 21.070312 0 L 19.125 -6.964844 L 7.558594 -6.964844 L 5.617188 0 L 0.929688 0 M 8.699219 -11.1875 L 17.988281 -11.1875 L 13.679688 -26.726562 L 13.003906 -26.726562 Z "/>
</g>
</g>
</defs>
<g fill="rgb(96.078431%, 96.862745%, 100%)" fill-opacity="1">
<use xlink:href="#glyph-0-0" x="30" y="61.546875"/>
<use xlink:href="#glyph-0-1" x="57" y="61.546875"/>
<use xlink:href="#glyph-0-2" x="81" y="61.546875"/>
<use xlink:href="#glyph-0-3" x="106" y="61.546875"/>
<use xlink:href="#glyph-0-4" x="134" y="61.546875"/>
<use xlink:href="#glyph-0-5" x="157" y="61.546875"/>
<use xlink:href="#glyph-0-6" x="183" y="61.546875"/>
<use xlink:href="#glyph-0-7" x="209" y="61.546875"/>
<use xlink:href="#glyph-0-8" x="237" y="61.546875"/>
<use xlink:href="#glyph-0-4" x="248" y="61.546875"/>
<use xlink:href="#glyph-0-9" x="271" y="61.546875"/>
<use xlink:href="#glyph-0-10" x="282" y="61.546875"/>
<use xlink:href="#glyph-0-3" x="310" y="61.546875"/>
<use xlink:href="#glyph-0-11" x="338" y="61.546875"/>
<use xlink:href="#glyph-0-12" x="349" y="61.546875"/>
<use xlink:href="#glyph-0-13" x="377" y="61.546875"/>
</g>
</svg>
