<?xml version="1.0" encoding="UTF-8"?>
<svg xmlns="http://www.w3.org/2000/svg" xmlns:xlink="http://www.w3.org/1999/xlink" width="4000" height="4000" viewBox="0 0 4000 4000">
<defs>
<g>
<g id="glyph-0-0">
<path d="M 16.003906 7.21875 C 14.792969 7.21875 13.8125 6.847656 13.066406 6.101562 C 12.320312 5.355469 11.949219 4.347656 11.949219 3.082031 L 11.949219 0.464844 C 8.992188 0.0703125 6.648438 -1.132812 4.917969 -3.144531 C 3.1875 -5.15625 2.320312 -7.882812 2.320312 -11.316406 L 2.320312 -18.238281 C 2.320312 -22.097656 3.390625 -25.046875 5.53125 -27.085938 C 7.671875 -29.125 10.554688 -30.148438 14.1875 -30.148438 C 17.816406 -30.148438 20.710938 -29.125 22.863281 -27.085938 C 25.015625 -25.046875 26.09375 -22.097656 26.09375 -18.238281 L 26.09375 -11.316406 C 26.09375 -7.851562 25.226562 -5.121094 23.496094 -3.125 C 21.765625 -1.125 19.410156 0.0703125 16.425781 0.464844 L 16.425781 2.320312 C 16.425781 3.167969 16.820312 3.589844 17.605469 3.589844 L 20.226562 3.589844 L 20.226562 7.21875 L 16.003906 7.21875 M 14.1875 -3.503906 C 16.496094 -3.503906 18.289062 -4.1875 19.570312 -5.550781 C 20.851562 -6.917969 21.492188 -8.78125 21.492188 -11.148438 L 21.492188 -18.410156 C 21.492188 -20.773438 20.851562 -22.636719 19.570312 -24.003906 C 18.289062 -25.367188 16.496094 -26.050781 14.1875 -26.050781 C 11.878906 -26.050781 10.085938 -25.367188 8.804688 -24.003906 C 7.523438 -22.636719 6.882812 -20.773438 6.882812 -18.410156 L 6.882812 -11.148438 C 6.882812 -8.78125 7.523438 -6.917969 8.804688 -5.550781 C 10.085938 -4.1875 11.878906 -3.503906 14.1875 -3.503906 Z "/>
</g>
<g id="glyph-0-1">
<path d="M 11.1875 0.378906 C 9.613281 0.378906 8.207031 0.0273438 6.964844 -0.675781 C 5.726562 -1.378906 4.757812 -2.378906 4.054688 -3.671875 C 3.351562 -4.96875 2.996094 -6.515625 2.996094 -8.316406 L 2.996094 -20.816406 L 7.347656 -20.816406 L 7.347656 -8.613281 C 7.347656 -6.8125 7.796875 -5.480469 8.699219 -4.625 C 9.597656 -3.765625 10.851562 -3.335938 12.457031 -3.335938 C 14.230469 -3.335938 15.65625 -3.933594 16.742188 -5.128906 C 17.824219 -6.328125 18.367188 -8.050781 18.367188 -10.300781 L 18.367188 -20.816406 L 22.714844 -20.816406 L 22.714844 0 L 18.453125 0 L 18.453125 -3.125 L 17.777344 -3.125 C 17.382812 -2.28125 16.679688 -1.484375 15.664062 -0.738281 C 14.652344 0.0078125 13.160156 0.378906 11.1875 0.378906 Z "/>
</g>
<g id="glyph-0-2">
<path d="M 9.667969 0.589844 C 8.175781 0.589844 6.847656 0.335938 5.679688 -0.167969 C 4.511719 -0.675781 3.582031 -1.421875 2.890625 -2.40625 C 2.203125 -3.390625 1.859375 -4.589844 1.859375 -5.996094 C 1.859375 -8.105469 2.609375 -9.703125 4.117188 -10.789062 C 5.621094 -11.871094 7.515625 -12.414062 9.796875 -12.414062 L 16.128906 -12.414062 L 16.128906 -13.765625 C 16.128906 -14.945312 15.761719 -15.910156 15.03125 -16.65625 C 14.300781 -17.402344 13.171875 -17.777344 11.652344 -17.777344 C 10.160156 -17.777344 9.023438 -17.425781 8.234375 -16.71875 C 7.445312 -16.015625 6.925781 -15.101562 6.671875 -13.976562 L 2.617188 -15.285156 C 2.957031 -16.382812 3.496094 -17.394531 4.242188 -18.324219 C 4.988281 -19.253906 5.972656 -20 7.199219 -20.5625 C 8.421875 -21.125 9.921875 -21.40625 11.695312 -21.40625 C 14.398438 -21.40625 16.523438 -20.71875 18.070312 -19.339844 C 19.621094 -17.957031 20.394531 -16.003906 20.394531 -13.46875 L 20.394531 -4.898438 C 20.394531 -4.054688 20.789062 -3.632812 21.574219 -3.632812 L 23.347656 -3.632812 L 23.347656 0 L 20.097656 0 C 19.140625 0 18.351562 -0.253906 17.734375 -0.761719 C 17.113281 -1.265625 16.804688 -1.957031 16.804688 -2.828125 L 16.804688 -2.957031 L 16.128906 -2.957031 C 15.902344 -2.503906 15.566406 -2.003906 15.117188 -1.457031 C 14.664062 -0.90625 14.003906 -0.429688 13.132812 -0.0195312 C 12.257812 0.386719 11.105469 0.589844 9.667969 0.589844 M 10.300781 -2.996094 C 12.019531 -2.996094 13.417969 -3.496094 14.503906 -4.496094 C 15.585938 -5.496094 16.128906 -6.867188 16.128906 -8.613281 L 16.128906 -9.035156 L 10.050781 -9.035156 C 8.894531 -9.035156 7.964844 -8.789062 7.261719 -8.296875 C 6.558594 -7.804688 6.207031 -7.078125 6.207031 -6.121094 C 6.207031 -5.164062 6.574219 -4.40625 7.304688 -3.84375 C 8.035156 -3.277344 9.035156 -2.996094 10.300781 -2.996094 Z "/>
</g>
<g id="glyph-0-3">
<path d="M 3.207031 0 L 3.207031 -20.816406 L 7.472656 -20.816406 L 7.472656 -17.691406 L 8.148438 -17.691406 C 8.542969 -18.535156 9.246094 -19.324219 10.261719 -20.054688 C 11.273438 -20.789062 12.78125 -21.152344 14.777344 -21.152344 C 16.355469 -21.152344 17.753906 -20.800781 18.980469 -20.097656 C 20.203125 -19.394531 21.167969 -18.394531 21.871094 -17.101562 C 22.574219 -15.804688 22.925781 -14.269531 22.925781 -12.496094 L 22.925781 0 L 18.578125 0 L 18.578125 -12.160156 C 18.578125 -13.960938 18.128906 -15.292969 17.226562 -16.148438 C 16.324219 -17.007812 15.085938 -17.4375 13.511719 -17.4375 C 11.710938 -17.4375 10.265625 -16.847656 9.183594 -15.664062 C 8.101562 -14.480469 7.558594 -12.765625 7.558594 -10.511719 L 7.558594 0 Z "/>
</g>
<g id="glyph-0-4">
<path d="M 11.824219 0.589844 C 10.078125 0.589844 8.480469 0.167969 7.03125 -0.675781 C 5.582031 -1.519531 4.414062 -2.738281 3.527344 -4.328125 C 2.640625 -5.917969 2.195312 -7.839844 2.195312 -10.089844 L 2.195312 -10.722656 C 2.195312 -12.949219 2.632812 -14.855469 3.503906 -16.445312 C 4.378906 -18.035156 5.546875 -19.261719 7.007812 -20.117188 C 8.472656 -20.976562 10.078125 -21.40625 11.824219 -21.40625 C 13.847656 -21.40625 15.402344 -21.046875 16.488281 -20.332031 C 17.570312 -19.613281 18.351562 -18.832031 18.832031 -17.988281 L 19.507812 -17.988281 L 19.507812 -29.554688 L 23.855469 -29.554688 L 23.855469 0 L 19.589844 0 L 19.589844 -2.957031 L 18.914062 -2.957031 C 18.382812 -2.054688 17.570312 -1.238281 16.488281 -0.507812 C 15.402344 0.226562 13.847656 0.589844 11.824219 0.589844 M 13.046875 -3.207031 C 14.933594 -3.207031 16.488281 -3.8125 17.710938 -5.023438 C 18.9375 -6.234375 19.550781 -7.964844 19.550781 -10.21875 L 19.550781 -10.597656 C 19.550781 -12.820312 18.9375 -14.539062 17.710938 -15.75 C 16.488281 -16.960938 14.933594 -17.566406 13.046875 -17.566406 C 11.160156 -17.566406 9.613281 -16.960938 8.402344 -15.75 C 7.191406 -14.539062 6.585938 -12.820312 6.585938 -10.597656 L 6.585938 -10.21875 C 6.585938 -7.964844 7.199219 -6.234375 8.421875 -5.023438 C 9.648438 -3.8125 11.1875 -3.207031 13.046875 -3.207031 Z "/>
</g>
<g id="glyph-0-5">
<path d="M 12.960938 0.589844 C 10.878906 0.589844 9.027344 0.160156 7.410156 -0.695312 C 5.792969 -1.554688 4.519531 -2.785156 3.589844 -4.390625 C 2.660156 -5.996094 2.195312 -7.894531 2.195312 -10.089844 L 2.195312 -10.722656 C 2.195312 -12.921875 2.660156 -14.8125 3.589844 -16.402344 C 4.519531 -17.992188 5.792969 -19.226562 7.410156 -20.097656 C 9.027344 -20.96875 10.878906 -21.40625 12.960938 -21.40625 C 15.046875 -21.40625 16.902344 -20.96875 18.535156 -20.097656 C 20.167969 -19.226562 21.449219 -17.992188 22.378906 -16.402344 C 23.308594 -14.8125 23.769531 -12.921875 23.769531 -10.722656 L 23.769531 -10.089844 C 23.769531 -7.894531 23.308594 -5.996094 22.378906 -4.390625 C 21.449219 -2.785156 20.167969 -1.554688 18.535156 -0.695312 C 16.902344 0.160156 15.046875 0.589844 12.960938 0.589844 M 12.960938 -3.292969 C 14.875 -3.292969 16.433594 -3.90625 17.628906 -5.128906 C 18.824219 -6.355469 19.421875 -8.050781 19.421875 -10.21875 L 19.421875 -10.597656 C 19.421875 -12.765625 18.824219 -14.460938 17.628906 -15.6875 C 16.433594 -16.910156 14.875 -17.523438 12.960938 -17.523438 C 11.046875 -17.523438 9.5 -16.910156 8.316406 -15.6875 C 7.136719 -14.460938 6.542969 -12.765625 6.542969 -10.597656 L 6.542969 -10.21875 C 6.542969 -8.050781 7.144531 -6.355469 8.339844 -5.128906 C 9.535156 -3.90625 11.078125 -3.292969 12.960938 -3.292969 Z "/>
</g>
<g id="glyph-0-6">
</g>
<g id="glyph-0-7">
<path d="M 11.738281 0.589844 C 9.0625 0.589844 6.855469 0 5.109375 -1.183594 C 3.363281 -2.363281 2.308594 -4.152344 1.941406 -6.542969 L 5.996094 -7.515625 C 6.304688 -5.769531 6.988281 -4.566406 8.042969 -3.90625 C 9.097656 -3.242188 10.332031 -2.914062 11.738281 -2.914062 C 13.117188 -2.914062 14.179688 -3.171875 14.925781 -3.695312 C 15.671875 -4.214844 16.042969 -4.910156 16.042969 -5.785156 C 16.042969 -6.628906 15.691406 -7.25 14.988281 -7.640625 C 14.285156 -8.035156 13.257812 -8.359375 11.90625 -8.613281 L 10.429688 -8.867188 C 9.023438 -9.121094 7.742188 -9.484375 6.585938 -9.964844 C 5.433594 -10.441406 4.519531 -11.105469 3.84375 -11.949219 C 3.167969 -12.792969 2.828125 -13.878906 2.828125 -15.199219 C 2.828125 -17.171875 3.5625 -18.699219 5.023438 -19.78125 C 6.488281 -20.863281 8.429688 -21.40625 10.851562 -21.40625 C 13.1875 -21.40625 15.109375 -20.878906 16.613281 -19.824219 C 18.121094 -18.769531 19.097656 -17.339844 19.550781 -15.539062 L 15.496094 -14.398438 C 15.242188 -15.664062 14.707031 -16.558594 13.890625 -17.078125 C 13.074219 -17.601562 12.0625 -17.859375 10.851562 -17.859375 C 9.667969 -17.859375 8.738281 -17.640625 8.066406 -17.207031 C 7.390625 -16.769531 7.050781 -16.15625 7.050781 -15.367188 C 7.050781 -14.523438 7.382812 -13.90625 8.042969 -13.511719 C 8.703125 -13.117188 9.597656 -12.820312 10.722656 -12.625 L 12.203125 -12.371094 C 13.695312 -12.117188 15.050781 -11.757812 16.277344 -11.292969 C 17.5 -10.832031 18.480469 -10.183594 19.210938 -9.351562 C 19.941406 -8.523438 20.308594 -7.402344 20.308594 -5.996094 C 20.308594 -3.882812 19.527344 -2.257812 17.964844 -1.117188 C 16.402344 0.0195312 14.328125 0.589844 11.738281 0.589844 Z "/>
</g>
<g id="glyph-0-8">
<path d="M 3.207031 0 L 3.207031 -20.816406 L 7.472656 -20.816406 L 7.472656 -18.367188 L 8.148438 -18.367188 C 8.542969 -19.097656 9.167969 -19.746094 10.027344 -20.308594 C 10.886719 -20.871094 12.074219 -21.152344 13.59375 -21.152344 C 15.144531 -21.152344 16.390625 -20.828125 17.332031 -20.183594 C 18.273438 -19.535156 18.984375 -18.734375 19.464844 -17.777344 L 20.140625 -17.777344 C 20.589844 -18.734375 21.28125 -19.535156 22.210938 -20.183594 C 23.136719 -20.828125 24.445312 -21.152344 26.136719 -21.152344 C 28.132812 -21.152344 29.800781 -20.527344 31.140625 -19.273438 C 32.476562 -18.023438 33.144531 -16.214844 33.144531 -13.847656 L 33.144531 0 L 28.796875 0 L 28.796875 -13.554688 C 28.796875 -14.792969 28.449219 -15.757812 27.761719 -16.445312 C 27.070312 -17.136719 26.09375 -17.480469 24.828125 -17.480469 C 23.476562 -17.480469 22.390625 -17.042969 21.574219 -16.171875 C 20.757812 -15.296875 20.351562 -14.046875 20.351562 -12.414062 L 20.351562 0 L 16.003906 0 L 16.003906 -13.554688 C 16.003906 -14.792969 15.65625 -15.757812 14.96875 -16.445312 C 14.277344 -17.136719 13.300781 -17.480469 12.035156 -17.480469 C 10.683594 -17.480469 9.597656 -17.042969 8.78125 -16.171875 C 7.964844 -15.296875 7.558594 -14.046875 7.558594 -12.414062 L 7.558594 0 Z "/>
</g>
<g id="glyph-0-9">
<path d="M 12.960938 0.589844 C 10.878906 0.589844 9.027344 0.160156 7.410156 -0.695312 C 5.792969 -1.554688 4.519531 -2.785156 3.589844 -4.390625 C 2.660156 -5.996094 2.195312 -7.894531 2.195312 -10.089844 L 2.195312 -10.722656 C 2.195312 -12.921875 2.660156 -14.8125 3.589844 -16.402344 C 4.519531 -17.992188 5.792969 -19.226562 7.410156 -20.097656 C 9.027344 -20.96875 10.878906 -21.40625 12.960938 -21.40625 C 15.046875 -21.40625 16.902344 -20.96875 18.535156 -20.097656 C 20.167969 -19.226562 21.449219 -17.992188 22.378906 -16.402344 C 23.308594 -14.8125 23.769531 -12.921875 23.769531 -10.722656 L 23.769531 -10.089844 C 23.769531 -7.894531 23.308594 -5.996094 22.378906 -4.390625 C 21.449219 -2.785156 20.167969 -1.554688 18.535156 -0.695312 C 16.902344 0.160156 15.046875 0.589844 12.960938 0.589844 M 12.960938 -3.292969 C 14.875 -3.292969 16.433594 -3.90625 17.628906 -5.128906 C 18.824219 -6.355469 19.421875 -8.050781 19.421875 -10.21875 L 19.421875 -10.597656 C 19.421875 -12.765625 18.824219 -14.460938 17.628906 -15.6875 C 16.433594 -16.910156 14.875 -17.523438 12.960938 -17.523438 C 11.046875 -17.523438 9.5 -16.910156 8.316406 -15.6875 C 7.136719 -14.460938 6.542969 -12.765625 6.542969 -10.597656 L 6.542969 -10.21875 C 6.542969 -8.050781 7.144531 -6.355469 8.339844 -5.128906 C 9.535156 -3.90625 11.078125 -3.292969 12.960938 -3.292969 M 10.261719 -23.347656 L 13.425781 -29.386719 L 18.453125 -29.386719 L 14.1875 -23.347656 Z "/>
</g>
<g id="glyph-0-10">
<path d="M 3.207031 0 L 3.207031 -29.554688 L 7.558594 -29.554688 L 7.558594 0 Z "/>
</g>
<g id="glyph-0-11">
<path d="M 12.75 0.589844 C 10.640625 0.589844 8.796875 0.148438 7.21875 -0.738281 C 5.644531 -1.625 4.414062 -2.871094 3.527344 -4.476562 C 2.640625 -6.078125 2.195312 -7.964844 2.195312 -10.132812 L 2.195312 -10.640625 C 2.195312 -12.808594 2.640625 -14.695312 3.527344 -16.296875 C 4.414062 -17.902344 5.628906 -19.15625 7.179688 -20.054688 C 8.726562 -20.957031 10.527344 -21.40625 12.582031 -21.40625 C 14.582031 -21.40625 16.332031 -20.964844 17.839844 -20.078125 C 19.34375 -19.191406 20.519531 -17.957031 21.363281 -16.382812 C 22.210938 -14.804688 22.632812 -12.960938 22.632812 -10.851562 L 22.632812 -9.203125 L 6.628906 -9.203125 C 6.683594 -7.375 7.296875 -5.917969 8.464844 -4.835938 C 9.632812 -3.75 11.089844 -3.207031 12.835938 -3.207031 C 14.46875 -3.207031 15.699219 -3.574219 16.53125 -4.308594 C 17.359375 -5.039062 18 -5.882812 18.453125 -6.839844 L 22.082031 -4.980469 C 21.660156 -4.195312 21.082031 -3.363281 20.351562 -2.492188 C 19.621094 -1.617188 18.632812 -0.886719 17.394531 -0.296875 C 16.15625 0.296875 14.609375 0.589844 12.75 0.589844 M 6.671875 -12.539062 L 18.238281 -12.539062 C 18.097656 -14.089844 17.523438 -15.3125 16.507812 -16.214844 C 15.496094 -17.113281 14.171875 -17.566406 12.539062 -17.566406 C 10.90625 -17.566406 9.578125 -17.113281 8.550781 -16.214844 C 7.523438 -15.3125 6.894531 -14.089844 6.671875 -12.539062 Z "/>
</g>
<g id="glyph-0-12">
<path d="M 3.207031 0 L 3.207031 -20.816406 L 7.472656 -20.816406 L 7.472656 -18.367188 L 8.148438 -18.367188 C 8.488281 -19.238281 9.023438 -19.878906 9.753906 -20.289062 C 10.484375 -20.695312 11.414062 -20.898438 12.539062 -20.898438 L 15.03125 -20.898438 L 15.03125 -16.972656 L 12.371094 -16.972656 C 10.9375 -16.972656 9.773438 -16.585938 8.886719 -15.8125 C 8 -15.039062 7.558594 -13.847656 7.558594 -12.246094 L 7.558594 0 Z "/>
</g>
<g id="glyph-0-13">
<path d="M 3.207031 0 L 3.207031 -20.816406 L 7.558594 -20.816406 L 7.558594 0 L 3.207031 0 M 5.40625 -23.644531 C 4.558594 -23.644531 3.847656 -23.917969 3.273438 -24.46875 C 2.695312 -25.015625 2.40625 -25.726562 2.40625 -26.601562 C 2.40625 -27.472656 2.695312 -28.183594 3.273438 -28.734375 C 3.847656 -29.28125 4.558594 -29.554688 5.40625 -29.554688 C 6.25 -29.554688 6.960938 -29.28125 7.535156 -28.734375 C 8.113281 -28.183594 8.402344 -27.472656 8.402344 -26.601562 C 8.402344 -25.726562 8.113281 -25.015625 7.535156 -24.46875 C 6.960938 -23.917969 6.25 -23.644531 5.40625 -23.644531 Z "/>
</g>
<g id="glyph-0-14">
<path d="M 2.195312 -10.300781 L 2.195312 -10.9375 C 2.195312 -13.101562 2.632812 -14.96875 3.503906 -16.53125 C 4.378906 -18.09375 5.546875 -19.296875 7.007812 -20.140625 C 8.472656 -20.984375 10.089844 -21.40625 11.863281 -21.40625 C 13.890625 -21.40625 15.445312 -21.027344 16.53125 -20.265625 C 17.613281 -19.507812 18.410156 -18.691406 18.914062 -17.816406 L 19.589844 -17.816406 L 19.589844 -20.816406 L 23.8125 -20.816406 L 23.8125 4.265625 C 23.8125 5.53125 23.441406 6.542969 22.695312 7.304688 C 21.949219 8.066406 20.929688 8.445312 19.632812 8.445312 L 5.617188 8.445312 L 5.617188 4.644531 L 18.28125 4.644531 C 19.097656 4.644531 19.507812 4.222656 19.507812 3.378906 L 19.507812 -3.25 L 18.832031 -3.25 C 18.351562 -2.433594 17.585938 -1.667969 16.53125 -0.949219 C 15.472656 -0.230469 13.917969 0.125 11.863281 0.125 C 10.121094 0.125 8.515625 -0.289062 7.050781 -1.117188 C 5.585938 -1.949219 4.414062 -3.144531 3.527344 -4.707031 C 2.640625 -6.269531 2.195312 -8.136719 2.195312 -10.300781 M 13.046875 -3.671875 C 14.933594 -3.671875 16.488281 -4.265625 17.710938 -5.445312 C 18.9375 -6.628906 19.550781 -8.289062 19.550781 -10.429688 L 19.550781 -10.808594 C 19.550781 -12.949219 18.9375 -14.609375 17.710938 -15.792969 C 16.488281 -16.972656 14.933594 -17.566406 13.046875 -17.566406 C 11.160156 -17.566406 9.613281 -16.972656 8.402344 -15.792969 C 7.191406 -14.609375 6.585938 -12.949219 6.585938 -10.808594 L 6.585938 -10.429688 C 6.585938 -8.289062 7.199219 -6.628906 8.421875 -5.445312 C 9.648438 -4.265625 11.1875 -3.671875 13.046875 -3.671875 Z "/>
</g>
<g id="glyph-0-15">
<path d="M 9.414062 -8.824219 L 9.414062 -10.597656 C 9.414062 -11.949219 9.675781 -13.046875 10.195312 -13.890625 C 10.71875 -14.734375 11.609375 -15.453125 12.878906 -16.042969 L 13.808594 -16.46875 C 15.1875 -17.058594 16.25 -17.734375 16.996094 -18.492188 C 17.742188 -19.253906 18.113281 -20.308594 18.113281 -21.660156 C 18.113281 -23.125 17.566406 -24.257812 16.46875 -25.058594 C 15.367188 -25.863281 13.976562 -26.261719 12.285156 -26.261719 C 10.597656 -26.261719 9.140625 -25.828125 7.917969 -24.953125 C 6.691406 -24.082031 6.078125 -22.773438 6.078125 -21.027344 L 6.078125 -19.800781 L 1.605469 -19.800781 L 1.605469 -20.984375 C 1.605469 -22.898438 2.074219 -24.539062 3.019531 -25.902344 C 3.960938 -27.269531 5.234375 -28.316406 6.839844 -29.050781 C 8.445312 -29.78125 10.261719 -30.148438 12.285156 -30.148438 C 14.285156 -30.148438 16.058594 -29.78125 17.605469 -29.050781 C 19.15625 -28.316406 20.371094 -27.316406 21.257812 -26.050781 C 22.144531 -24.785156 22.589844 -23.320312 22.589844 -21.660156 C 22.589844 -20.027344 22.285156 -18.667969 21.679688 -17.585938 C 21.074219 -16.503906 20.296875 -15.621094 19.339844 -14.945312 C 18.382812 -14.269531 17.367188 -13.695312 16.296875 -13.214844 L 15.367188 -12.792969 C 14.835938 -12.566406 14.46875 -12.28125 14.269531 -11.929688 C 14.074219 -11.574219 13.976562 -11.078125 13.976562 -10.429688 L 13.976562 -8.824219 L 9.414062 -8.824219 M 11.78125 0.589844 C 10.796875 0.589844 9.980469 0.265625 9.332031 -0.378906 C 8.683594 -1.027344 8.359375 -1.859375 8.359375 -2.871094 C 8.359375 -3.882812 8.683594 -4.707031 9.332031 -5.339844 C 9.980469 -5.972656 10.796875 -6.292969 11.78125 -6.292969 C 12.765625 -6.292969 13.589844 -5.972656 14.25 -5.339844 C 14.910156 -4.707031 15.242188 -3.882812 15.242188 -2.871094 C 15.242188 -1.859375 14.910156 -1.027344 14.25 -0.378906 C 13.589844 0.265625 12.765625 0.589844 11.78125 0.589844 Z "/>
</g>
</g>
</defs>
<g fill="rgb(96.078431%, 96.862745%, 100%)" fill-opacity="1">
<use xlink:href="#glyph-0-0" x="30" y="61.546875"/>
<use xlink:href="#glyph-0-1" x="58" y="61.546875"/>
<use xlink:href="#glyph-0-2" x="84" y="61.546875"/>
<use xlink:href="#glyph-0-3" x="108" y="61.546875"/>
<use xlink:href="#glyph-0-4" x="134" y="61.546875"/>
<use xlink:href="#glyph-0-5" x="161" y="61.546875"/>
<use xlink:href="#glyph-0-6" x="187" y="61.546875"/>
<use xlink:href="#glyph-0-5" x="198" y="61.546875"/>
<use xlink:href="#glyph-0-7" x="224" y="61.546875"/>
<use xlink:href="#glyph-0-6" x="246" y="61.546875"/>
<use xlink:href="#glyph-0-8" x="257" y="61.546875"/>
<use xlink:href="#glyph-0-9" x="293" y="61.546875"/>
<use xlink:href="#glyph-0-4" x="319" y="61.546875"/>
<use xlink:href="#glyph-0-1" x="346" y="61.546875"/>
<use xlink:href="#glyph-0-10" x="372" y="61.546875"/>
<use xlink:href="#glyph-0-5" x="383" y="61.546875"/>
<use xlink:href="#glyph-0-7" x="409" y="61.546875"/>
<use xlink:href="#glyph-0-6" x="431" y="61.546875"/>
<use xlink:href="#glyph-0-7" x="442" y="61.546875"/>
<use xlink:href="#glyph-0-11" x="464" y="61.546875"/>
<use xlink:href="#glyph-0-12" x="489" y="61.546875"/>
<use xlink:href="#glyph-0-13" x="505" y="61.546875"/>
<use xlink:href="#glyph-0-2" x="516" y="61.546875"/>
<use xlink:href="#glyph-0-8" x="540" y="61.546875"/>
<use xlink:href="#glyph-0-6" x="576" y="61.546875"/>
<use xlink:href="#glyph-0-13" x="587" y="61.546875"/>
<use xlink:href="#glyph-0-14" x="598" y="61.546875"/>
<use xlink:href="#glyph-0-1" x="625" y="61.546875"/>
<use xlink:href="#glyph-0-2" x="651" y="61.546875"/>
<use xlink:href="#glyph-0-13" x="675" y="61.546875"/>
<use xlink:href="#glyph-0-7" x="686" y="61.546875"/>
<use xlink:href="#glyph-0-15" x="708" y="61.546875"/>
</g>
</svg>
